<svg width="30" height="30" viewBox="0 0 30 30" fill="none" xmlns="http://www.w3.org/2000/svg">
<path d="M18.5 22.8V21.1334C18.5 20.2493 18.1488 19.4015 17.5237 18.7764C16.8986 18.1512 16.0507 17.8 15.1667 17.8H9.33333C8.44928 17.8 7.60143 18.1512 6.97631 18.7764C6.35119 19.4015 6 20.2493 6 21.1334V22.8" stroke="#010564" stroke-width="2" stroke-linecap="round" stroke-linejoin="round"/>
<path d="M12.2493 14.4667C14.0903 14.4667 15.5827 12.9743 15.5827 11.1334C15.5827 9.29243 14.0903 7.80005 12.2493 7.80005C10.4084 7.80005 8.91602 9.29243 8.91602 11.1334C8.91602 12.9743 10.4084 14.4667 12.2493 14.4667Z" stroke="#010564" stroke-width="2" stroke-linecap="round" stroke-linejoin="round"/>
<path d="M21.834 11.9668V16.9668" stroke="#010564" stroke-width="2" stroke-linecap="round" stroke-linejoin="round"/>
<path d="M24.333 14.4668H19.333" stroke="#010564" stroke-width="2" stroke-linecap="round" stroke-linejoin="round"/>
</svg>
