<svg width="25" height="23" viewBox="0 0 25 23" fill="none" xmlns="http://www.w3.org/2000/svg">
<path d="M13.1029 12.8512C13.8968 12.8512 14.6582 13.1666 15.2195 13.7279C15.7809 14.2893 16.0963 15.0506 16.0963 15.8445L16.0943 17.3382C16.2998 21.003 13.4771 22.8309 8.2418 22.8309C3.02445 22.8309 0.139893 21.0269 0.139893 17.3901V15.8445C0.139893 15.0506 0.455259 14.2893 1.01661 13.7279C1.57797 13.1666 2.33933 12.8512 3.13321 12.8512H13.1029V12.8512ZM21.0851 12.8512C21.879 12.8512 22.6404 13.1666 23.2017 13.7279C23.7631 14.2893 24.0784 15.0506 24.0784 15.8445V16.8952C24.258 20.1828 21.7636 21.8311 17.2048 21.8311C16.5862 21.8311 16.0045 21.8012 15.4607 21.7413C16.5323 20.7515 17.105 19.4095 17.103 17.7133L17.09 17.2823L17.094 15.8445C17.0946 15.2781 16.9743 14.7181 16.7411 14.2019C16.508 13.6857 16.1674 13.2252 15.7421 12.8512H21.0861H21.0851ZM8.12207 0.87793C9.44546 0.87793 10.7146 1.40365 11.6504 2.33942C12.5862 3.2752 13.1119 4.54439 13.1119 5.86779C13.1119 7.19118 12.5862 8.46037 11.6504 9.39615C10.7146 10.3319 9.44546 10.8576 8.12207 10.8576C6.79868 10.8576 5.52949 10.3319 4.59371 9.39615C3.65793 8.46037 3.13221 7.19118 3.13221 5.86779C3.13221 4.54439 3.65793 3.2752 4.59371 2.33942C5.52949 1.40365 6.79868 0.87793 8.12207 0.87793V0.87793ZM18.0998 2.87347C19.1583 2.87347 20.1734 3.29396 20.9219 4.04244C21.6704 4.79091 22.0909 5.80606 22.0909 6.86456C22.0909 7.92306 21.6704 8.93821 20.9219 9.68669C20.1734 10.4352 19.1583 10.8556 18.0998 10.8556C17.0413 10.8556 16.0261 10.4352 15.2777 9.68669C14.5292 8.93821 14.1087 7.92306 14.1087 6.86456C14.1087 5.80606 14.5292 4.79091 15.2777 4.04244C16.0261 3.29396 17.0413 2.87347 18.0998 2.87347Z" fill="url(#paint0_linear_89_12953)"/>
<defs>
<linearGradient id="paint0_linear_89_12953" x1="12.1137" y1="0.87793" x2="12.1137" y2="22.8309" gradientUnits="userSpaceOnUse">
<stop stop-color="#8DBBFF"/>
<stop offset="1" stop-color="#5F9EFF"/>
</linearGradient>
</defs>
</svg>
