<svg width="13" height="14" viewBox="0 0 13 14" fill="none" xmlns="http://www.w3.org/2000/svg">
<path d="M10.0016 4.60064C10.0016 3.64569 9.62224 2.72985 8.94699 2.0546C8.27174 1.37935 7.35591 1 6.40096 1C5.44601 1 4.53017 1.37935 3.85492 2.0546C3.17967 2.72985 2.80032 3.64569 2.80032 4.60064C2.80032 8.80138 1 10.0016 1 10.0016H11.8019C11.8019 10.0016 10.0016 8.80138 10.0016 4.60064Z" stroke="#010564" stroke-width="1.5" stroke-linecap="round" stroke-linejoin="round"/>
<path d="M7.4377 12.4019C7.33219 12.5837 7.18076 12.7347 6.99855 12.8397C6.81635 12.9446 6.60978 12.9998 6.39951 12.9998C6.18925 12.9998 5.98267 12.9446 5.80047 12.8397C5.61827 12.7347 5.46683 12.5837 5.36133 12.4019" stroke="#010564" stroke-width="1.5" stroke-linecap="round" stroke-linejoin="round"/>
</svg>
