<svg width="13" height="15" viewBox="0 0 13 15" fill="none" xmlns="http://www.w3.org/2000/svg">
<path d="M9.4 1.3999H10.8C11.1713 1.3999 11.5274 1.5474 11.7899 1.80995C12.0525 2.0725 12.2 2.4286 12.2 2.7999V12.5999C12.2 12.9712 12.0525 13.3273 11.7899 13.5899C11.5274 13.8524 11.1713 13.9999 10.8 13.9999H2.4C2.0287 13.9999 1.6726 13.8524 1.41005 13.5899C1.1475 13.3273 1 12.9712 1 12.5999V2.7999C1 2.4286 1.1475 2.0725 1.41005 1.80995C1.6726 1.5474 2.0287 1.3999 2.4 1.3999H3.8" stroke="#010564" stroke-width="1.5" stroke-linecap="round" stroke-linejoin="round"/>
<path d="M4.5 7.6502L5.63077 8.7002L9.4 5.2002" stroke="#010564" stroke-linecap="round" stroke-linejoin="round"/>
<path d="M8.70078 1H4.50078C4.11418 1 3.80078 1.3134 3.80078 1.7V3.1C3.80078 3.4866 4.11418 3.8 4.50078 3.8H8.70078C9.08738 3.8 9.40078 3.4866 9.40078 3.1V1.7C9.40078 1.3134 9.08738 1 8.70078 1Z" stroke="#010564" stroke-width="1.5" stroke-linecap="round" stroke-linejoin="round"/>
<path d="M9.40078 12.8999H3.80078" stroke="#010564" stroke-linecap="round" stroke-linejoin="round"/>
<path d="M9.40078 10.7998H3.80078" stroke="#010564" stroke-linecap="round" stroke-linejoin="round"/>
</svg>
