<svg width="16" height="17" viewBox="0 0 16 17" fill="none" xmlns="http://www.w3.org/2000/svg">
<path d="M7.26208 2.5813H2.39157C2.02251 2.5813 1.66855 2.73838 1.40758 3.01799C1.14661 3.29761 1 3.67684 1 4.07227V14.5091C1 14.9045 1.14661 15.2837 1.40758 15.5634C1.66855 15.843 2.02251 16.0001 2.39157 16.0001H12.1326C12.5017 16.0001 12.8556 15.843 13.1166 15.5634C13.3775 15.2837 13.5242 14.9045 13.5242 14.5091V9.29068" stroke="#010564" stroke-width="1.5" stroke-linecap="round" stroke-linejoin="round"/>
<path d="M12.4801 1.46319C12.7569 1.16661 13.1323 1 13.5238 1C13.9152 1 14.2906 1.16661 14.5674 1.46319C14.8442 1.75976 14.9997 2.162 14.9997 2.58142C14.9997 3.00083 14.8442 3.40307 14.5674 3.69964L7.95746 10.7818L5.17432 11.5273L5.8701 8.54531L12.4801 1.46319Z" stroke="#010564" stroke-width="1.5" stroke-linecap="round" stroke-linejoin="round"/>
</svg>
