<svg width="18" height="16" viewBox="0 0 18 16" fill="none" xmlns="http://www.w3.org/2000/svg">
<path d="M6.04908 8.94116L14.4147 13.9523C14.5937 14.0556 14.7965 14.1103 15.0031 14.1108C15.2097 14.1114 15.4129 14.0579 15.5924 13.9556C15.7719 13.8533 15.9215 13.7057 16.0262 13.5277C16.131 13.3496 16.1873 13.1472 16.1896 12.9406L16.1896 2.91837C16.1873 2.71177 16.131 2.50937 16.0262 2.3313C15.9215 2.15323 15.7719 2.0057 15.5924 1.90339C15.4129 1.80107 15.2097 1.74754 15.0031 1.74812C14.7965 1.7487 14.5937 1.80336 14.4147 1.90668L6.04908 6.91779C5.8752 7.02326 5.73145 7.17176 5.63168 7.34897C5.53191 7.52618 5.47949 7.72611 5.47949 7.92948C5.47949 8.13284 5.53191 8.33277 5.63168 8.50998C5.73145 8.68719 5.8752 8.83569 6.04908 8.94116Z" fill="#595C9F" stroke="#595C9F" stroke-width="2" stroke-linecap="round" stroke-linejoin="round"/>
<line x1="1.65527" y1="1.15649" x2="1.65527" y2="14.764" stroke="#595C9F" stroke-width="3"/>
</svg>
