<svg width="18" height="16" viewBox="0 0 18 16" fill="none" xmlns="http://www.w3.org/2000/svg">
<path d="M11.2576 6.97925L2.89191 1.96814C2.71299 1.86482 2.51013 1.81015 2.30352 1.80957C2.09691 1.809 1.89375 1.86253 1.71426 1.96484C1.53476 2.06715 1.38518 2.21469 1.2804 2.39276C1.17562 2.57083 1.11929 2.77323 1.11702 2.97983L1.11702 13.002C1.11929 13.2086 1.17562 13.411 1.2804 13.5891C1.38518 13.7672 1.53476 13.9147 1.71426 14.017C1.89375 14.1193 2.09691 14.1729 2.30352 14.1723C2.51013 14.1717 2.71299 14.117 2.89191 14.0137L11.2576 9.00262C11.4314 8.89715 11.5752 8.74865 11.675 8.57144C11.7747 8.39423 11.8271 8.1943 11.8271 7.99093C11.8271 7.78757 11.7747 7.58764 11.675 7.41043C11.5752 7.23322 11.4314 7.08472 11.2576 6.97925Z" fill="#595C9F" stroke="#595C9F" stroke-width="2" stroke-linecap="round" stroke-linejoin="round"/>
<line x1="15.6514" y1="14.7639" x2="15.6514" y2="1.15642" stroke="#595C9F" stroke-width="3"/>
</svg>
