<svg width="15" height="15" viewBox="0 0 15 15" fill="none" xmlns="http://www.w3.org/2000/svg">
<path d="M1.97777 8.45307L11.1894 13.601C11.3864 13.7072 11.6098 13.7633 11.8373 13.7639C12.0648 13.7645 12.2885 13.7095 12.4861 13.6044C12.6838 13.4993 12.8485 13.3477 12.9638 13.1648C13.0792 12.9819 13.1412 12.7739 13.1437 12.5617V2.2658C13.1412 2.05357 13.0792 1.84564 12.9638 1.6627C12.8485 1.47977 12.6838 1.32821 12.4861 1.2231C12.2885 1.11799 12.0648 1.063 11.8373 1.0636C11.6098 1.06419 11.3864 1.12035 11.1894 1.22649L1.97777 6.37444C1.78631 6.48279 1.62802 6.63535 1.51816 6.8174C1.4083 6.99944 1.35059 7.20484 1.35059 7.41375C1.35059 7.62267 1.4083 7.82806 1.51816 8.01011C1.62802 8.19216 1.78631 8.34472 1.97777 8.45307Z" fill="#595C9F" stroke="#595C9F" stroke-width="2" stroke-linecap="round" stroke-linejoin="round"/>
</svg>
