<svg width="15" height="15" viewBox="0 0 15 15" fill="none" xmlns="http://www.w3.org/2000/svg">
<path d="M12.6248 6.37432L3.41317 1.22637C3.21615 1.12024 2.99278 1.06408 2.76528 1.06348C2.53778 1.06289 2.31407 1.11788 2.11642 1.22299C1.91877 1.3281 1.75407 1.47965 1.63869 1.66259C1.52332 1.84552 1.46129 2.05345 1.45879 2.26569L1.45879 12.5616C1.46129 12.7738 1.52332 12.9818 1.63869 13.1647C1.75407 13.3476 1.91877 13.4992 2.11642 13.6043C2.31407 13.7094 2.53778 13.7644 2.76528 13.7638C2.99278 13.7632 3.21615 13.707 3.41317 13.6009L12.6248 8.45295C12.8162 8.3446 12.9745 8.19204 13.0844 8.01C13.1942 7.82795 13.252 7.62256 13.252 7.41364C13.252 7.20472 13.1942 6.99933 13.0844 6.81728C12.9745 6.63523 12.8162 6.48268 12.6248 6.37432Z" fill="#595C9F" stroke="#595C9F" stroke-width="2" stroke-linecap="round" stroke-linejoin="round"/>
</svg>
