<svg width="13" height="9" viewBox="0 0 13 9" fill="none" xmlns="http://www.w3.org/2000/svg">
<path d="M6.01017 7.83347C6.06426 7.89793 6.13665 7.95064 6.2211 7.98705C6.30554 8.02346 6.39951 8.04249 6.4949 8.04249C6.5903 8.04249 6.68426 8.02346 6.76871 7.98705C6.85315 7.95064 6.92554 7.89793 6.97964 7.83347L12.287 1.54422C12.3484 1.47168 12.3844 1.38671 12.3911 1.29856C12.3978 1.2104 12.375 1.12242 12.325 1.04417C12.275 0.965931 12.1999 0.900418 12.1077 0.854753C12.0156 0.809088 11.9099 0.785018 11.8022 0.785157H1.18756C1.08015 0.785521 0.97488 0.809901 0.883088 0.855675C0.791297 0.90145 0.716451 0.966886 0.666601 1.04495C0.616751 1.12301 0.593782 1.21074 0.600165 1.29871C0.606548 1.38668 0.642041 1.47156 0.702827 1.54422L6.01017 7.83347Z" fill="#010564"/>
</svg>
