<svg width="15" height="17" viewBox="0 0 15 17" fill="none" xmlns="http://www.w3.org/2000/svg">
<path d="M1 4H2.44444H14" stroke="#010564" stroke-width="1.5" stroke-linecap="round" stroke-linejoin="round"/>
<path d="M4.61051 4V2.5C4.61051 2.10218 4.7627 1.72064 5.03358 1.43934C5.30447 1.15804 5.67187 1 6.05496 1H8.94385C9.32694 1 9.69434 1.15804 9.96522 1.43934C10.2361 1.72064 10.3883 2.10218 10.3883 2.5V4M12.555 4V14.5C12.555 14.8978 12.4028 15.2794 12.1319 15.5607C11.861 15.842 11.4936 16 11.1105 16H3.88829C3.5052 16 3.1378 15.842 2.86692 15.5607C2.59603 15.2794 2.44385 14.8978 2.44385 14.5V4H12.555Z" stroke="#010564" stroke-width="1.5" stroke-linecap="round" stroke-linejoin="round"/>
<path d="M6.05469 7.75V12.25" stroke="#010564" stroke-width="1.5" stroke-linecap="round" stroke-linejoin="round"/>
<path d="M8.94434 7.75V12.25" stroke="#010564" stroke-width="1.5" stroke-linecap="round" stroke-linejoin="round"/>
</svg>
