<svg width="18" height="18" viewBox="0 0 18 18" fill="none" xmlns="http://www.w3.org/2000/svg">
<path d="M1 4.19995H2.77778H17" stroke="#010564" stroke-width="1.5" stroke-linecap="round" stroke-linejoin="round"/>
<path d="M5.44346 4.2V2.6C5.44346 2.17565 5.63076 1.76869 5.96416 1.46863C6.29756 1.16857 6.74974 1 7.22124 1H10.7768C11.2483 1 11.7005 1.16857 12.0339 1.46863C12.3673 1.76869 12.5546 2.17565 12.5546 2.6V4.2M15.2212 4.2V15.4C15.2212 15.8243 15.0339 16.2313 14.7005 16.5314C14.3671 16.8314 13.915 17 13.4435 17H4.55457C4.08308 17 3.63089 16.8314 3.29749 16.5314C2.9641 16.2313 2.77679 15.8243 2.77679 15.4V4.2H15.2212Z" stroke="#010564" stroke-width="1.5" stroke-linecap="round" stroke-linejoin="round"/>
<path d="M7.22095 8.19995V13" stroke="#010564" stroke-width="1.5" stroke-linecap="round" stroke-linejoin="round"/>
<path d="M10.778 8.19995V13" stroke="#010564" stroke-width="1.5" stroke-linecap="round" stroke-linejoin="round"/>
</svg>
